<svg id="Grupo_107" data-name="Grupo 107" xmlns="http://www.w3.org/2000/svg" width="66.004" height="297.31" viewBox="0 0 66.004 297.31">
  <g id="Grupo_103" data-name="Grupo 103" transform="translate(56.74)">
    <path id="Trazado_87" data-name="Trazado 87" d="M87.529-90.692A4.593,4.593,0,0,1,82.9-95.245h0A4.593,4.593,0,0,1,87.529-99.8h0a4.592,4.592,0,0,1,4.633,4.554h0a4.592,4.592,0,0,1-4.633,4.554Z" transform="translate(-82.898 99.799)" fill="#fff"/>
    <path id="Trazado_88" data-name="Trazado 88" d="M87.529-51.531A4.593,4.593,0,0,1,82.9-56.084h0a4.594,4.594,0,0,1,4.631-4.555h0a4.594,4.594,0,0,1,4.633,4.554h0a4.594,4.594,0,0,1-4.633,4.554Z" transform="translate(-82.898 99.062)" fill="#fff"/>
    <ellipse id="Elipse_4" data-name="Elipse 4" cx="4.632" cy="4.555" rx="4.632" ry="4.555" transform="translate(0 76.853)" fill="#fff"/>
    <ellipse id="Elipse_5" data-name="Elipse 5" cx="4.632" cy="4.555" rx="4.632" ry="4.555" transform="translate(0 115.279)" fill="#fff"/>
    <path id="Trazado_89" data-name="Trazado 89" d="M87.532,65.964a4.556,4.556,0,1,1,4.633-4.554,4.557,4.557,0,0,1-4.633,4.554Z" transform="translate(-82.901 96.852)" fill="#fff"/>
    <path id="Trazado_90" data-name="Trazado 90" d="M87.532,105.127a4.555,4.555,0,1,1,4.633-4.556,4.555,4.555,0,0,1-4.633,4.556Z" transform="translate(-82.901 96.115)" fill="#fff"/>
    <ellipse id="Elipse_6" data-name="Elipse 6" cx="4.632" cy="4.555" rx="4.632" ry="4.555" transform="translate(0 230.559)" fill="#fff"/>
    <ellipse id="Elipse_7" data-name="Elipse 7" cx="4.632" cy="4.555" rx="4.632" ry="4.555" transform="translate(0 268.986)" fill="#fff"/>
  </g>
  <g id="Grupo_104" data-name="Grupo 104" transform="translate(38.213 19.214)">
    <path id="Trazado_91" data-name="Trazado 91" d="M68.65-71.109a4.593,4.593,0,0,1-4.631-4.554h0a4.593,4.593,0,0,1,4.631-4.554h0a4.593,4.593,0,0,1,4.632,4.554h0a4.594,4.594,0,0,1-4.631,4.555Z" transform="translate(-64.015 80.217)" fill="#fff"/>
    <path id="Trazado_92" data-name="Trazado 92" d="M68.65-31.945A4.593,4.593,0,0,1,64.019-36.5h0a4.594,4.594,0,0,1,4.629-4.559h0A4.6,4.6,0,0,1,73.282-36.5h0a4.593,4.593,0,0,1-4.629,4.556Z" transform="translate(-64.015 79.48)" fill="#fff"/>
    <ellipse id="Elipse_8" data-name="Elipse 8" cx="4.632" cy="4.555" rx="4.632" ry="4.555" transform="translate(0 76.853)" fill="#fff"/>
    <ellipse id="Elipse_9" data-name="Elipse 9" cx="4.632" cy="4.555" rx="4.632" ry="4.555" transform="translate(0 115.28)" fill="#fff"/>
    <path id="Trazado_93" data-name="Trazado 93" d="M68.653,85.545a4.555,4.555,0,1,1,4.632-4.556,4.555,4.555,0,0,1-4.632,4.556Z" transform="translate(-64.018 77.27)" fill="#fff"/>
    <ellipse id="Elipse_10" data-name="Elipse 10" cx="4.632" cy="4.555" rx="4.632" ry="4.555" transform="translate(0 192.133)" fill="#fff"/>
    <path id="Trazado_94" data-name="Trazado 94" d="M68.653,163.873a4.556,4.556,0,1,1,4.632-4.555A4.556,4.556,0,0,1,68.653,163.873Z" transform="translate(-64.018 75.796)" fill="#fff"/>
    <ellipse id="Elipse_11" data-name="Elipse 11" cx="4.632" cy="4.555" rx="4.632" ry="4.555" transform="translate(0 268.986)" fill="#fff"/>
  </g>
  <g id="Grupo_105" data-name="Grupo 105" transform="translate(18.527 0)">
    <path id="Trazado_95" data-name="Trazado 95" d="M48.584-90.692a4.594,4.594,0,0,1-4.631-4.554A4.594,4.594,0,0,1,48.584-99.8a4.593,4.593,0,0,1,4.632,4.554h0a4.593,4.593,0,0,1-4.631,4.554Z" transform="translate(-43.952 99.799)" fill="#fff"/>
    <path id="Trazado_96" data-name="Trazado 96" d="M48.584-51.531a4.6,4.6,0,0,1-4.631-4.554,4.6,4.6,0,0,1,4.631-4.555,4.593,4.593,0,0,1,4.632,4.554h0a4.593,4.593,0,0,1-4.631,4.554Z" transform="translate(-43.952 99.062)" fill="#fff"/>
    <ellipse id="Elipse_12" data-name="Elipse 12" cx="4.632" cy="4.555" rx="4.632" ry="4.555" transform="translate(0 76.853)" fill="#fff"/>
    <ellipse id="Elipse_13" data-name="Elipse 13" cx="4.632" cy="4.555" rx="4.632" ry="4.555" transform="translate(0 115.279)" fill="#fff"/>
    <path id="Trazado_97" data-name="Trazado 97" d="M48.587,65.964a4.556,4.556,0,1,1,4.632-4.554A4.556,4.556,0,0,1,48.587,65.964Z" transform="translate(-43.955 96.852)" fill="#fff"/>
    <path id="Trazado_98" data-name="Trazado 98" d="M48.587,105.127a4.555,4.555,0,1,1,4.632-4.556A4.555,4.555,0,0,1,48.587,105.127Z" transform="translate(-43.955 96.115)" fill="#fff"/>
    <ellipse id="Elipse_14" data-name="Elipse 14" cx="4.632" cy="4.555" rx="4.632" ry="4.555" transform="translate(0 230.559)" fill="#fff"/>
    <ellipse id="Elipse_15" data-name="Elipse 15" cx="4.632" cy="4.555" rx="4.632" ry="4.555" transform="translate(0 268.986)" fill="#fff"/>
  </g>
  <g id="Grupo_106" data-name="Grupo 106" transform="translate(0 19.214)">
    <path id="Trazado_99" data-name="Trazado 99" d="M29.7-71.109a4.593,4.593,0,0,1-4.631-4.554h0A4.592,4.592,0,0,1,29.7-80.217h0a4.593,4.593,0,0,1,4.631,4.554h0A4.594,4.594,0,0,1,29.7-71.109Z" transform="translate(-25.07 80.217)" fill="#fff"/>
    <path id="Trazado_100" data-name="Trazado 100" d="M29.7-31.945A4.593,4.593,0,0,1,25.07-36.5h0A4.594,4.594,0,0,1,29.7-41.055h0A4.594,4.594,0,0,1,34.332-36.5h0A4.593,4.593,0,0,1,29.7-31.945Z" transform="translate(-25.07 79.48)" fill="#fff"/>
    <path id="Trazado_101" data-name="Trazado 101" d="M29.7,7.219A4.593,4.593,0,0,1,25.07,2.665h0a4.632,4.632,0,0,1,9.262,0A4.593,4.593,0,0,1,29.7,7.219Z" transform="translate(-25.07 78.743)" fill="#fff"/>
    <path id="Trazado_102" data-name="Trazado 102" d="M29.7,46.379a4.555,4.555,0,1,1,4.631-4.555A4.555,4.555,0,0,1,29.7,46.379Z" transform="translate(-25.073 78.007)" fill="#fff"/>
    <path id="Trazado_103" data-name="Trazado 103" d="M29.7,85.545a4.555,4.555,0,1,1,4.631-4.556A4.555,4.555,0,0,1,29.7,85.545Z" transform="translate(-25.073 77.27)" fill="#fff"/>
    <path id="Trazado_104" data-name="Trazado 104" d="M29.7,124.709a4.556,4.556,0,1,1,4.631-4.556,4.556,4.556,0,0,1-4.631,4.556Z" transform="translate(-25.073 76.533)" fill="#fff"/>
    <path id="Trazado_105" data-name="Trazado 105" d="M29.7,163.873a4.556,4.556,0,1,1,4.631-4.555A4.557,4.557,0,0,1,29.7,163.873Z" transform="translate(-25.073 75.796)" fill="#fff"/>
    <path id="Trazado_106" data-name="Trazado 106" d="M29.7,203.037a4.556,4.556,0,1,1,4.631-4.554A4.556,4.556,0,0,1,29.7,203.037Z" transform="translate(-25.073 75.059)" fill="#fff"/>
  </g>
</svg>
